<?xml version="1.0" encoding="iso-8859-1"?>
<!-- Generator: Adobe Illustrator 19.0.0, SVG Export Plug-In . SVG Version: 6.00 Build 0)  -->
<svg version="1.1" id="Capa_1" xmlns="http://www.w3.org/2000/svg" xmlns:xlink="http://www.w3.org/1999/xlink" x="0px" y="0px"
	 viewBox="0 0 512 512" style="enable-background:new 0 0 512 512;" xml:space="preserve">
<path style="fill:#999999;" d="M327.376,36.722C324.952,16.043,307.368,0,286.043,0H55.469C32.491,0,13.85,18.641,13.85,41.619
	v24.444l24.267,177.971L13.85,443.191v27.191c0,22.99,18.641,41.619,41.619,41.619h230.574c22.99,0,41.619-18.628,41.619-41.619
	v-2.945l-0.016-24.244L303.667,244.02l23.727-178.287L327.376,36.722z"/>
<rect x="13.85" y="66.063" style="fill:#4D4D4D;" width="313.811" height="377.128"/>
<circle style="opacity:0.6;fill:#333333;enable-background:new    ;" cx="170.762" cy="478.969" r="20.504"/>
<g style="opacity:0.2;">
	<path d="M176.715,420.356h49.709v51.846v24.245h92.057c5.739-7.133,9.18-16.195,9.18-26.066l-0.066-99.734H226.423L176.715,420.356
		z"/>
	<polygon points="327.507,237.229 226.423,237.229 226.423,277.791 176.715,327.5 226.423,327.5 327.567,327.5 	"/>
	<polygon points="226.423,95.074 226.423,145.268 176.715,194.976 226.423,194.976 327.48,194.976 327.394,65.734 226.423,65.734 	
		"/>
</g>
<polygon style="fill:#A6E2E3;" points="498.15,341.636 498.15,467.436 327.661,467.436 197.412,467.436 197.412,443.191 
	197.412,391.344 147.703,391.344 197.412,341.636 327.661,341.636 "/>
<polygon style="fill:#FFA638;" points="498.15,208.217 498.15,298.489 327.661,298.489 197.412,298.489 147.703,298.489 
	197.412,248.78 197.412,208.217 327.661,208.217 "/>
<polygon style="fill:#A6E2E3;" points="498.15,36.722 498.15,165.965 327.661,165.965 197.412,165.965 147.703,165.965 
	197.412,116.256 197.412,66.063 197.412,36.722 327.376,36.722 "/>
<g>
	<path style="fill:#808080;" d="M452.172,93.267H243.395c-5.149,0-9.32-4.173-9.32-9.32s4.172-9.32,9.32-9.32h208.777
		c5.149,0,9.32,4.173,9.32,9.32S457.319,93.267,452.172,93.267z"/>
	<path style="fill:#808080;" d="M363.939,130.549H243.395c-5.149,0-9.32-4.173-9.32-9.32s4.172-9.32,9.32-9.32h120.544
		c5.149,0,9.32,4.173,9.32,9.32S369.086,130.549,363.939,130.549z"/>
	<path style="fill:#808080;" d="M452.172,395.214H243.395c-5.149,0-9.32-4.173-9.32-9.32s4.172-9.32,9.32-9.32h208.777
		c5.149,0,9.32,4.173,9.32,9.32S457.319,395.214,452.172,395.214z"/>
	<path style="fill:#808080;" d="M361.453,432.496H243.395c-5.149,0-9.32-4.173-9.32-9.32s4.172-9.32,9.32-9.32h118.058
		c5.149,0,9.32,4.173,9.32,9.32S366.601,432.496,361.453,432.496z"/>
	<path style="fill:#808080;" d="M452.172,262.675H243.395c-5.149,0-9.32-4.173-9.32-9.32c0-5.147,4.172-9.32,9.32-9.32h208.777
		c5.149,0,9.32,4.173,9.32,9.32C461.492,258.502,457.319,262.675,452.172,262.675z"/>
</g>
<g>
</g>
<g>
</g>
<g>
</g>
<g>
</g>
<g>
</g>
<g>
</g>
<g>
</g>
<g>
</g>
<g>
</g>
<g>
</g>
<g>
</g>
<g>
</g>
<g>
</g>
<g>
</g>
<g>
</g>
</svg>
