<?xml version="1.0" encoding="iso-8859-1"?>
<!-- Generator: Adobe Illustrator 19.0.0, SVG Export Plug-In . SVG Version: 6.00 Build 0)  -->
<svg version="1.1" id="Capa_1" xmlns="http://www.w3.org/2000/svg" xmlns:xlink="http://www.w3.org/1999/xlink" x="0px" y="0px"
	 viewBox="0 0 512.001 512.001" style="enable-background:new 0 0 512.001 512.001;" xml:space="preserve">
<g>
	<path style="fill:#FFB69E;" d="M405.393,463.449l-149.38-11.578l-149.398,11.578c-13.385,1.027-23.404,12.711-22.377,26.096
		c1.03,13.414,12.742,23.405,26.096,22.377l145.671-11.525c155.193,12.25,145.71,11.598,147.556,11.598
		c12.58,0,23.233-9.697,24.21-22.449C428.797,476.159,418.778,464.476,405.393,463.449z"/>
	<path style="fill:#FFB69E;" d="M54.503,389.905l15.639,0.609c1.146-0.622,2.269-1.31,3.348-2.105l83.433-61.444
		c7.302-5.378,11.613-13.907,11.613-22.976V204.55c0.057-5.619,5.092-10.355,11.02-10.355h0.864v200.616l151.142,0.115v-200.73
		h0.863c5.927,0,10.963,4.737,11.02,10.355v99.439c0,9.069,4.311,17.598,11.613,22.976l83.433,61.444
		c1.087,0.8,2.218,1.494,3.372,2.118l15.615-0.623c4.176-0.652,8.294-0.538,12.213,0.236c3.308-1.91,6.287-4.514,8.697-7.787
		c9.346-12.69,6.635-30.552-6.055-39.897l-71.82-52.891v-85.109c0-0.048,0-0.095,0-0.143c-0.186-37.047-30.73-67.188-68.088-67.188
		c-17.254,0-135.613,0-152.869,0c-37.358,0-67.903,30.14-68.088,67.188c0,0.048,0,0.095,0,0.143v85.109l-71.82,52.891
		c-16.64,12.254-15.056,37.529,2.702,47.721C46.266,389.4,50.366,389.272,54.503,389.905z"/>
	<path style="fill:#FFB69E;" d="M472.058,390.703c0.152,0.041,0.303,0.082,0.454,0.126
		C472.361,390.786,472.21,390.744,472.058,390.703z"/>
	<circle style="fill:#FFB69E;" cx="256.001" cy="59.14" r="59.14"/>
</g>
<path style="fill:#FFA50A;" d="M332.438,137.127h-44.159c0.622,17.976-16.081,33.23-33.519,33.23
	c-18.69,0-32.55-15.196-33.496-33.23h-41.695c-37.358,0-67.903,30.14-68.088,67.188v61.222h57.068v-60.985
	c0.057-5.619,5.092-10.355,11.02-10.355h0.864V394.65l151.142,0.278V194.196h0.863c5.927,0,10.963,4.737,11.02,10.355v60.985h57.068
	v-61.222C400.341,167.267,369.796,137.127,332.438,137.127z"/>
<path style="fill:#3C5A73;" d="M497.112,416.727c-3.179-13.843-14.251-23.985-27.421-26.586l0,0
	c-3.919-0.773-8.037-0.887-12.213-0.236l-15.615,0.623l0,0l-110.302,4.399l-151.142-0.115l-110.278-4.297l0,0l-15.639-0.61
	c-4.137-0.634-8.237-0.506-12.153,0.273l0,0c-13.616,2.708-24.646,13.245-27.593,27.158c-4.02,18.978,8.106,37.621,27.084,41.641
	l190.423,40.302c14.924,3.159,30.326,3.256,45.283,0.312l192.594-40.614C488.983,454.966,501.578,436.213,497.112,416.727z"/>
<g>
</g>
<g>
</g>
<g>
</g>
<g>
</g>
<g>
</g>
<g>
</g>
<g>
</g>
<g>
</g>
<g>
</g>
<g>
</g>
<g>
</g>
<g>
</g>
<g>
</g>
<g>
</g>
<g>
</g>
</svg>
